<?xml version="1.0" encoding="UTF-8"?>
<svg version="1.1" xmlns="http://www.w3.org/2000/svg" width="1024" height="1024">
<path d="M0 0 C4.60766107 1.42052508 7.40514545 4.02453177 10.67578125 7.41796875 C11.20463425 7.95343826 11.73348724 8.48890778 12.27836609 9.04060364 C13.96370049 10.7492461 15.63855377 12.46770546 17.3125 14.1875 C19.51305593 16.43481494 21.71798426 18.67776814 23.92578125 20.91796875 C24.45938263 21.46025116 24.99298401 22.00253357 25.54275513 22.56124878 C28.9327421 25.98512573 32.42998065 29.20785462 36.10229492 32.3293457 C40.73394973 36.40684652 44.96501121 40.93028444 49.2890625 45.328125 C52.76640264 48.841314 56.25002899 52.27725264 60 55.5 C65.39677457 60.13802012 70.30354364 65.25752903 75.2890625 70.328125 C78.68800367 73.7621068 82.08202209 77.12823082 85.76171875 80.26171875 C91.77485445 85.4283957 97.24440057 91.17693766 102.8125 96.8125 C105.04527762 99.07190737 107.28138417 101.32794419 109.51953125 103.58203125 C110.02579544 104.09659378 110.53205963 104.61115631 111.05366516 105.14131165 C113.28173749 107.38489561 115.35646384 109.23764256 118 111 C118 111.66 118 112.32 118 113 C118.66 113 119.32 113 120 113 C120 113.66 120 114.32 120 115 C120.80848389 115.31843872 120.80848389 115.31843872 121.63330078 115.64331055 C124.87507185 117.50162722 127.28010359 120.05415399 129.8671875 122.70703125 C130.7029985 123.55064461 130.7029985 123.55064461 131.55569458 124.41130066 C133.33362764 126.20700279 135.10473613 128.00923938 136.875 129.8125 C138.63893948 131.60420475 140.40436709 133.39437535 142.17288208 135.18156433 C143.2710153 136.29179266 144.36646728 137.404682 145.45870972 138.52070618 C147.99884893 141.09355483 150.56008185 143.49478202 153.38330078 145.7565918 C154.67856689 146.86707886 154.67856689 146.86707886 156 148 C156 148.66 156 149.32 156 150 C127.95 150.33 99.9 150.66 71 151 C71.0309375 168.5725 71.0309375 168.5725 71.0625 186.5 C71.08840785 216.34774083 70.86013869 246.16279544 70 276 C69.43647324 276.26678055 68.87294647 276.5335611 68.29234314 276.8084259 C52.61643344 284.24066627 37.06667133 291.90425312 21.5625 299.6875 C19.39397686 300.77428141 17.22535727 301.86087041 15.05664062 302.94726562 C11.05091929 304.95413993 7.045791 306.9621877 3.04125977 308.97143555 C-1.42591083 311.21189717 -5.89490462 313.4486956 -10.3649292 315.68345642 C-11.0617031 316.03182104 -11.758477 316.38018565 -12.47636527 316.73910677 C-19.32730261 320.1640841 -26.17937184 323.5867939 -33.03164673 327.00909424 C-49.32679313 335.14761852 -65.62063131 343.28875976 -81.91389942 351.43104362 C-91.30411645 356.12357538 -100.69471075 360.81534922 -110.08618164 365.50537109 C-118.33080665 369.62267083 -126.57470673 373.741418 -134.81777114 377.86184132 C-139.16093925 380.03277987 -143.50444306 382.20303998 -147.84882545 384.3715477 C-164.02829844 392.4480796 -180.19816128 400.51982601 -196.15783882 409.02515411 C-201.12282891 411.65255731 -206.14324198 414.17282546 -211.16015625 416.69921875 C-212.84400673 417.5471978 -212.84400673 417.5471978 -214.56187439 418.41230774 C-216.8874467 419.58190207 -219.21358144 420.75037876 -221.5402832 421.91772461 C-223.92071064 423.11379576 -226.29953449 424.3125346 -228.67602539 425.51635742 C-232.14541347 427.27378782 -235.6211935 429.01832106 -239.09765625 430.76171875 C-240.16516617 431.30422775 -241.23267609 431.84673676 -242.33253479 432.40568542 C-243.31213669 432.89402359 -244.29173859 433.38236176 -245.30102539 433.88549805 C-246.16305069 434.31944382 -247.02507599 434.75338959 -247.91322327 435.20048523 C-248.60185959 435.4643251 -249.29049591 435.72816498 -250 436 C-250.66 435.67 -251.32 435.34 -252 435 C-246.56429698 429.5180263 -241.12324952 424.04140718 -235.67526436 418.57164001 C-233.14591408 416.03183728 -230.61846392 413.49020135 -228.09521484 410.94433594 C-225.19658113 408.01988356 -222.28995498 405.10349429 -219.3828125 402.1875 C-218.47443634 401.26880127 -217.56606018 400.35010254 -216.63015747 399.40356445 C-215.36907669 398.14225708 -215.36907669 398.14225708 -214.08251953 396.85546875 C-213.34083527 396.10934326 -212.599151 395.36321777 -211.83499146 394.59448242 C-210 393 -210 393 -208 393 C-207.7525 392.38125 -207.505 391.7625 -207.25 391.125 C-205.79371361 388.64931313 -204.62187494 388.04874998 -202 387 C-202 386.34 -202 385.68 -202 385 C-200.35648543 383.63823078 -198.68477344 382.31037934 -197 381 C-195.31845446 379.34834624 -193.65388192 377.67935409 -192 376 C-191.09725342 375.0920166 -190.19450684 374.1840332 -189.2644043 373.24853516 C-188.55292488 372.5322142 -188.55292488 372.5322142 -187.82707214 371.80142212 C-185.68032851 369.64109936 -183.53074655 367.48360912 -181.38110352 365.32617188 C-180.25649806 364.1965408 -179.13279218 363.0660134 -178.01000977 361.93457031 C-172.48963867 356.37289968 -166.98870298 350.88972415 -161.02270508 345.80224609 C-156.47840973 341.75324329 -152.27201903 337.33300638 -148 333 C-146.1072613 331.08024056 -144.21093242 329.16412746 -142.3125 327.25 C-141.48363281 326.40953125 -140.65476562 325.5690625 -139.80078125 324.703125 C-137.62333149 322.60159748 -135.42458294 320.61219828 -133.13671875 318.63671875 C-129.07629638 315.11409119 -125.2748798 311.38682189 -121.5 307.5625 C-120.82001953 306.87873291 -120.14003906 306.19496582 -119.43945312 305.49047852 C-117.29049074 303.32942945 -115.14482721 301.16515274 -113 299 C-110.16966163 296.14283983 -107.33587327 293.28916546 -104.5 290.4375 C-103.86642578 289.79562744 -103.23285156 289.15375488 -102.58007812 288.49243164 C-97.41302224 283.2975886 -92.19927489 278.19582742 -86.14331055 274.03930664 C-76.07091715 267.11931165 -66.12686753 259.16617332 -63.72705078 246.58007812 C-61.80787042 232.35488334 -62.68925109 217.82104481 -63.35205078 203.5322876 C-63.64440165 196.5524105 -63.75156074 189.56736871 -63.89093018 182.58308411 C-64.12138792 172.04494004 -64.58150596 161.53984978 -65 151 C-94.04 150.67 -123.08 150.34 -153 150 C-150.525 147.525 -150.525 147.525 -148 145 C-146.60805761 143.59192849 -145.2161605 142.18381131 -143.82563782 140.77433777 C-141.71370562 138.63552231 -139.5963191 136.50213912 -137.47875977 134.36889648 C-136.36078156 133.24076229 -135.24459037 132.11085457 -134.13012695 130.97924805 C-132.51457175 129.33956243 -130.89275424 127.70630931 -129.26953125 126.07421875 C-128.77056839 125.56493332 -128.27160553 125.05564789 -127.75752258 124.53092957 C-126.54239138 123.31540293 -125.27535639 122.15217834 -124 121 C-123.34 121 -122.68 121 -122 121 C-121.67 120.01 -121.34 119.02 -121 118 C-119.56954956 116.59202576 -119.56954956 116.59202576 -117.67919922 115.05249023 C-112.42330497 110.58882277 -107.61498757 105.71230093 -102.770298 100.81489754 C-101.10007402 99.12707277 -99.42614993 97.44299693 -97.75119019 95.75987244 C-92.99580319 90.98019385 -88.24633137 86.19466748 -83.50097656 81.4050293 C-80.58470181 78.46205353 -77.66363916 75.52390204 -74.73952866 72.58871269 C-73.62841772 71.47138441 -72.51920908 70.35216111 -71.41193008 69.23103523 C-69.87301403 67.67301292 -68.32813711 66.12114695 -66.78173828 64.57055664 C-65.90429962 63.68566055 -65.02686096 62.80076447 -64.12283325 61.88905334 C-62 60 -62 60 -60 60 C-60 59.34 -60 58.68 -60 58 C-58.52108765 56.54356384 -58.52108765 56.54356384 -56.48193359 54.85522461 C-52.19431884 51.20728435 -48.23298107 47.32945496 -44.2890625 43.31640625 C-42.86601296 41.88073294 -41.44283223 40.44518966 -40.01953125 39.00976562 C-37.80556407 36.77081401 -35.59324756 34.5302738 -33.38330078 32.28735352 C-31.23119197 30.10522957 -29.07305801 27.92921352 -26.9140625 25.75390625 C-26.24952057 25.07590469 -25.58497864 24.39790314 -24.90029907 23.69935608 C-24.2856076 23.08128586 -23.67091614 22.46321564 -23.03759766 21.82641602 C-22.49769196 21.27905289 -21.95778625 20.73168976 -21.40151978 20.16773987 C-20 19 -20 19 -18 19 C-18 18.34 -18 17.68 -18 17 C-16.64453125 15.66796875 -16.64453125 15.66796875 -14.8125 14.1875 C-11.6973477 11.6040504 -8.8280163 8.90052954 -6 6 C-4.89714703 4.89452119 -3.79295733 3.79037449 -2.6875 2.6875 C-1.3571875 1.3571875 -1.3571875 1.3571875 0 0 Z " fill="#FB8536" transform="translate(697,380)"/>
<path d="M0 0 C0.99 0.33 1.98 0.66 3 1 C3 1.66 3 2.32 3 3 C3.59683594 3.26683594 4.19367188 3.53367188 4.80859375 3.80859375 C7.04574324 5.02486932 8.34420067 6.20357259 10.0625 8.0625 C12.94270032 11.03462161 15.95972061 13.65940473 19.1875 16.25 C23.85566048 20.00245822 28.26061745 23.94801997 32.63256836 28.03393555 C36.38911761 31.51620296 40.30883543 34.65481151 44.453125 37.66015625 C44.96359375 38.10230469 45.4740625 38.54445312 46 39 C46 39.66 46 40.32 46 41 C46.55429687 41.23589844 47.10859375 41.47179687 47.6796875 41.71484375 C50.56447242 43.3126455 52.71172032 45.31851009 55.125 47.5625 C58.31507509 50.63719186 58.31507509 50.63719186 62 53 C62 53.66 62 54.32 62 55 C62.81791016 55.33837891 62.81791016 55.33837891 63.65234375 55.68359375 C66.69806986 57.39143019 69.05323972 59.67051771 71.5625 62.0625 C75.39465791 65.65112328 79.26920432 69.09644611 83.375 72.375 C88.47921985 76.47317072 93.24482105 80.86793506 97.96630859 85.39599609 C100.82391729 88.10693255 103.67069189 90.53390835 106.921875 92.765625 C107.93765625 93.50296875 108.9534375 94.2403125 110 95 C110 95.66 110 96.32 110 97 C110.56203125 97.24363281 111.1240625 97.48726563 111.703125 97.73828125 C114.44019785 99.24180936 116.45795941 101.06699748 118.75 103.1875 C119.63171875 103.99574219 120.5134375 104.80398438 121.421875 105.63671875 C122.69804688 106.80654297 122.69804688 106.80654297 124 108 C125.32899114 109.17161061 126.6619604 110.33873392 128 111.5 C130.97391711 114.08653312 133.89780743 116.72194125 136.8125 119.375 C140.21083552 122.44746773 143.67590523 125.38442622 147.25 128.25 C153.00946426 132.90658812 158.37948699 137.92834177 163.77734375 142.9921875 C166.22988279 145.29104448 168.71196996 147.54524663 171.25 149.75 C171.84296875 150.265625 172.4359375 150.78125 173.046875 151.3125 C174.59517182 152.65022845 176.14830202 153.98236243 177.703125 155.3125 C178.62609375 156.116875 179.5490625 156.92125 180.5 157.75 C181.3559375 158.48734375 182.211875 159.2246875 183.09375 159.984375 C185 162 185 162 185 165 C183.61254883 166.45947266 183.61254883 166.45947266 181.64453125 168.0390625 C175.34253233 173.31780229 169.72152529 179.26868386 163.98242188 185.14453125 C163.12583984 186.01207031 162.26925781 186.87960937 161.38671875 187.7734375 C160.61545654 188.56153809 159.84419434 189.34963867 159.04956055 190.16162109 C157 192 157 192 154 193 C153.33355469 192.38253906 152.66710937 191.76507813 151.98046875 191.12890625 C147.31429221 186.84124473 142.63695059 182.65000657 137.6875 178.6875 C131.93877502 174.05063443 126.58759837 169.0398537 121.203125 163.9921875 C117.54766336 160.56650978 113.80017915 157.26391693 110 154 C107.56050731 151.89813546 105.12345789 149.79345988 102.6875 147.6875 C102.03434814 147.12321289 101.38119629 146.55892578 100.70825195 145.97753906 C96.8360417 142.62229803 93.02124798 139.21824958 89.25 135.75 C85.79667568 132.58190601 82.2771306 129.5614393 78.625 126.625 C73.19108991 122.24055753 68.10173982 117.54499937 63 112.78515625 C60.03378541 110.01958648 57.00092712 107.34032886 53.93359375 104.6875 C51.72147948 102.75692755 49.5491109 100.78576111 47.375 98.8125 C43.35082248 95.17716172 39.25503175 91.63848304 35.125 88.125 C30.60049845 84.27571496 26.1641491 80.35606774 21.8125 76.3125 C15.17406952 70.17172964 8.26783386 64.38358063 1 59 C-5.44765697 64.06697367 -11.54710089 69.36730388 -17.5 75 C-22.56259335 79.78902543 -27.73117182 84.30166332 -33.1796875 88.65234375 C-37.88918148 92.5725735 -42.30970509 96.80119046 -46.77734375 100.9921875 C-49.81794331 103.8422557 -52.92348424 106.60488811 -56.078125 109.328125 C-58.41105074 111.35758073 -60.70511245 113.427647 -63 115.5 C-66.61676345 118.76390848 -70.26389608 121.98790949 -73.9375 125.1875 C-76.30964429 127.27211164 -78.65556065 129.38428644 -81 131.5 C-84.61676345 134.76390848 -88.26389608 137.98790949 -91.9375 141.1875 C-94.30964429 143.27211164 -96.65556065 145.38428644 -99 147.5 C-102.61676345 150.76390848 -106.26389608 153.98790949 -109.9375 157.1875 C-112.30964429 159.27211164 -114.65556065 161.38428644 -117 163.5 C-122.3110608 168.28800179 -127.66131351 173.02187651 -133.1171875 177.64453125 C-140.5479352 183.95170773 -147.76534305 190.43563496 -154.8828125 197.09375 C-161.6596102 203.42902293 -168.7394822 209.19158576 -176 215 C-163.13 215.33 -150.26 215.66 -137 216 C-136.30916119 219.45419403 -135.87516729 221.94269045 -135.87695217 225.33217335 C-135.87496112 226.17117674 -135.87297007 227.01018013 -135.87091869 227.87460786 C-135.87383153 228.78608935 -135.87674437 229.69757084 -135.87974548 230.63667297 C-135.87846385 232.10090935 -135.87846385 232.10090935 -135.87715632 233.59472626 C-135.87550815 236.86826387 -135.88101208 240.14175032 -135.88647461 243.4152832 C-135.88675665 245.76081847 -135.88659842 248.10635382 -135.8860321 250.45188904 C-135.88574479 256.8232983 -135.89163094 263.19468879 -135.89860606 269.56609368 C-135.904218 275.54888511 -135.90522892 281.53167656 -135.90625793 287.51447012 C-135.90844588 299.36357282 -135.91509899 311.21266862 -135.92456055 323.06176758 C-135.93374132 334.57120733 -135.9408189 346.08064521 -135.94506836 357.59008789 C-135.94533108 358.29967922 -135.94559381 359.00927055 -135.94586449 359.74036465 C-135.94716954 363.30022042 -135.94843325 366.86007621 -135.94967639 370.41993201 C-135.96004099 399.94662578 -135.97772672 429.47331277 -136 459 C-114.66683949 460.00753695 -93.38952574 460.11014654 -72.03686905 460.04459953 C-65.95084429 460.02599571 -59.86482485 460.0166304 -53.77877808 460.00868225 C-36.49734969 459.98474984 -19.21595784 459.94838056 -1.93457031 459.90405273 C7.66246858 459.87951635 17.25949422 459.86215437 26.85655987 459.85249335 C32.905786 459.84596561 38.95490052 459.83044575 45.00408816 459.80817592 C48.75076752 459.79645852 52.49741973 459.79307951 56.24411583 459.79207802 C57.98038324 459.78992958 59.71665031 459.78433459 61.45289421 459.7750473 C63.82105758 459.7628669 66.18891313 459.76301228 68.55709839 459.76622009 C69.24394238 459.75971229 69.93078638 459.75320449 70.63844383 459.74649948 C74.53145095 459.76704339 77.49028884 460.30037438 81 462 C80.44602539 462.22727783 79.89205078 462.45455566 79.32128906 462.6887207 C76.32266566 464.38262124 74.27205539 466.52222907 71.859375 468.98046875 C71.37349915 469.47154617 70.88762329 469.9626236 70.38702393 470.46858215 C68.83649697 472.03685648 67.29280844 473.61163482 65.75 475.1875 C63.72743901 477.24694562 61.70161085 479.3030939 59.671875 481.35546875 C59.18083282 481.85214554 58.68979065 482.34882233 58.18386841 482.86054993 C54.81813383 486.24045892 51.33536795 489.42045772 47.70703125 492.51342773 C44.29589073 495.48402766 41.23678274 498.80204146 38.1015625 502.05859375 C36 504 36 504 34 504 C34 504.66 34 505.32 34 506 C-37.28 506 -108.56 506 -182 506 C-182 426.14 -182 346.28 -182 264 C-219.62 264 -257.24 264 -296 264 C-290.36507937 258.36507937 -290.36507937 258.36507937 -287.94921875 256.1328125 C-287.15511597 255.39865112 -287.15511597 255.39865112 -286.3449707 254.6496582 C-285.79800537 254.146521 -285.25104004 253.64338379 -284.6875 253.125 C-284.11281982 252.59543701 -283.53813965 252.06587402 -282.94604492 251.52026367 C-279.32476934 248.19248109 -275.66692432 244.91475365 -271.9453125 241.69921875 C-269.6633471 239.70593572 -267.42771426 237.66506973 -265.1875 235.625 C-261.81059018 232.57141133 -258.36782868 229.65570795 -254.8125 226.8125 C-248.74679782 221.90996514 -243.11835023 216.57741963 -237.4453125 211.23046875 C-234.31881938 208.2864525 -231.13117158 205.4289331 -227.875 202.62890625 C-225.61248819 200.66334911 -223.40309317 198.64326691 -221.1875 196.625 C-217.69135361 193.46130925 -214.11613919 190.44907667 -210.4375 187.5 C-206.09785695 183.99420141 -202.20484635 180.25373083 -198.3203125 176.2578125 C-194.93432805 172.96303301 -191.2508107 170.07662304 -187.56640625 167.125 C-184.75603611 164.79799641 -182.22427083 162.31526367 -179.6875 159.69921875 C-175.54345078 155.52639141 -171.394679 151.45212682 -166 149 C-166 148.34 -166 147.68 -166 147 C-164.46804728 145.62787699 -162.87078919 144.3284554 -161.25 143.0625 C-156.9602226 139.63399065 -152.83810112 136.1092451 -148.8125 132.375 C-144.94525743 128.7907863 -141.04269308 125.26258423 -137.05859375 121.80859375 C-134.5104335 119.5698875 -132.00589407 117.28589788 -129.5 115 C-125.71065874 111.54424587 -121.88916302 108.1347711 -118.01953125 104.76953125 C-113.97334911 101.22423046 -109.99256813 97.60541001 -106 94 C-100.71670028 89.22902025 -95.42215589 84.47638408 -90.05078125 79.8046875 C-87.73911203 77.77041859 -85.4646857 75.6977769 -83.1875 73.625 C-79.64839998 70.42347567 -76.02896894 67.36853937 -72.3125 64.375 C-68.53247712 61.31700396 -65.04251817 58.16241214 -61.6640625 54.671875 C-59.27847909 52.27509166 -56.72744074 50.09079027 -54.16796875 47.8828125 C-51.75157049 45.7842468 -49.37470976 43.645603 -47 41.5 C-41.67665307 36.70092208 -36.31136661 31.9592205 -30.84765625 27.3203125 C-24.81694372 22.19314734 -18.86077705 17.0148524 -13.0625 11.625 C-12.52230225 11.12436035 -11.98210449 10.6237207 -11.42553711 10.10791016 C-9.19149915 8.03679613 -6.96037388 5.96283768 -4.73828125 3.87890625 C-2.875 2.1875 -2.875 2.1875 0 0 Z " fill="#124373" transform="translate(470,208)"/>
<path d="M0 0 C1.26108078 0.0001133 1.26108078 0.0001133 2.54763794 0.00022888 C3.91020218 0.00797081 3.91020218 0.00797081 5.30029297 0.01586914 C6.22969696 0.01728409 7.15910095 0.01869904 8.1166687 0.02015686 C11.09197171 0.02576486 14.06720011 0.03831871 17.04248047 0.05102539 C19.0568023 0.05603936 21.07112531 0.06060245 23.08544922 0.06469727 C28.02951167 0.07488701 32.97341232 0.09446086 37.91748047 0.11352539 C37.91748047 13.64352539 37.91748047 27.17352539 37.91748047 41.11352539 C38.90748047 41.60852539 38.90748047 41.60852539 39.91748047 42.11352539 C34.60690588 43.00220869 29.51862102 43.2470842 24.14013672 43.21118164 C23.32878769 43.20976669 22.51743866 43.20835175 21.6815033 43.20689392 C19.11429 43.20133896 16.54716699 43.18879507 13.97998047 43.17602539 C12.2293307 43.17100456 10.47867954 43.16644268 8.72802734 43.16235352 C4.45781077 43.15138432 0.18766088 43.13415122 -4.08251953 43.11352539 C-5.16836041 38.7461152 -5.19558104 34.50850834 -5.14501953 30.03930664 C-5.14123291 29.27426315 -5.13744629 28.50921967 -5.13354492 27.72099304 C-5.12137665 25.28927858 -5.10273723 22.85768544 -5.08251953 20.42602539 C-5.05598518 17.21378919 -5.03597887 14.00161078 -5.02001953 10.78930664 C-5.01172119 10.04973221 -5.00342285 9.31015778 -4.99487305 8.548172 C-4.90308072 4.70444297 -4.90308072 4.70444297 -6.08251953 1.11352539 C-3.79620459 -0.02963208 -2.53904547 -0.00760193 0 0 Z " fill="#134271" transform="translate(483.08251953125,479.886474609375)"/>
<path d="M0 0 C13.86 0 27.72 0 42 0 C42 14.19 42 28.38 42 43 C22.6875 42.9375 22.6875 42.9375 16.6003418 42.90991211 C15.00830146 42.90699151 13.41626038 42.90444329 11.82421875 42.90234375 C10.58412048 42.8946698 10.58412048 42.8946698 9.31896973 42.88684082 C5.95820403 42.88632765 3.21110248 42.92963251 0 44 C-0.85194646 39.57317791 -1.12865657 35.3842322 -1.1328125 30.87890625 C-1.13376923 30.21592026 -1.13472595 29.55293427 -1.13571167 28.86985779 C-1.13638835 27.47565617 -1.13456999 26.08145132 -1.13037109 24.68725586 C-1.12502409 22.57202963 -1.1303291 20.45701652 -1.13671875 18.34179688 C-1.13605771 16.9791662 -1.13477602 15.61653567 -1.1328125 14.25390625 C-1.13168457 13.03002197 -1.13055664 11.8061377 -1.12939453 10.54516602 C-1 7 -1 7 0 0 Z " fill="#144574" transform="translate(479,424)"/>
<path d="M0 0 C0.88026855 -0.0033284 1.76053711 -0.0066568 2.66748047 -0.01008606 C4.53026811 -0.01515292 6.39306485 -0.01749446 8.25585938 -0.01733398 C11.11343226 -0.01952239 13.97062037 -0.03768578 16.828125 -0.05664062 C18.63541534 -0.05957415 20.44270752 -0.06155922 22.25 -0.0625 C23.53753174 -0.07327827 23.53753174 -0.07327827 24.85107422 -0.08427429 C30.89617421 -0.06085704 30.89617421 -0.06085704 33.125 2.16796875 C33.22967436 5.18538676 33.21368812 8.10216287 33.1015625 11.11328125 C33.06402359 12.4407991 33.06402359 12.4407991 33.02572632 13.7951355 C32.94340545 16.62812931 32.84686323 19.46043843 32.75 22.29296875 C32.69177276 24.21090933 32.63446923 26.12887818 32.578125 28.046875 C32.43780872 32.75430165 32.28473467 37.46116261 32.125 42.16796875 C28.24062746 43.4627596 24.56617884 43.29133793 20.51953125 43.265625 C19.77554077 43.26461792 19.03155029 43.26361084 18.26501465 43.26257324 C15.48916073 43.25734618 12.71332879 43.2433849 9.9375 43.23046875 C0.6253125 43.19953125 0.6253125 43.19953125 -8.875 43.16796875 C-8.875 29.63796875 -8.875 16.10796875 -8.875 2.16796875 C-9.535 1.83796875 -10.195 1.50796875 -10.875 1.16796875 C-7.50860724 -0.51522763 -3.70259311 0.00480027 0 0 Z " fill="#134474" transform="translate(430.875,479.83203125)"/>
<path d="M0 0 C6.55875 -0.04125 13.1175 -0.0825 19.875 -0.125 C21.94507324 -0.14320801 24.01514648 -0.16141602 26.14794922 -0.18017578 C27.783526 -0.18601544 29.41910568 -0.19111224 31.0546875 -0.1953125 C31.90812744 -0.20554443 32.76156738 -0.21577637 33.64086914 -0.22631836 C35.76192133 -0.22694981 37.88253507 -0.12330885 40 0 C42 2 42 2 42.13525391 5.99072266 C42.09267411 7.71545487 42.03926635 9.43994462 41.9765625 11.1640625 C41.95489014 11.96803467 41.93321777 12.77200684 41.91088867 13.6003418 C41.82677494 16.60889464 41.72480472 19.6169268 41.625 22.625 C41.41875 29.34875 41.2125 36.0725 41 43 C27.47 43 13.94 43 0 43 C0 28.81 0 14.62 0 0 Z " fill="#134373" transform="translate(422,424)"/>
<path d="M0 0 C4.60766107 1.42052508 7.40514545 4.02453177 10.67578125 7.41796875 C11.20463425 7.95343826 11.73348724 8.48890778 12.27836609 9.04060364 C13.96370049 10.7492461 15.63855377 12.46770546 17.3125 14.1875 C19.51305593 16.43481494 21.71798426 18.67776814 23.92578125 20.91796875 C24.45938263 21.46025116 24.99298401 22.00253357 25.54275513 22.56124878 C28.9327421 25.98512573 32.42998065 29.20785462 36.10229492 32.3293457 C40.73394973 36.40684652 44.96501121 40.93028444 49.2890625 45.328125 C52.76640264 48.841314 56.25002899 52.27725264 60 55.5 C65.39677457 60.13802012 70.30354364 65.25752903 75.2890625 70.328125 C78.68800367 73.7621068 82.08202209 77.12823082 85.76171875 80.26171875 C91.77485445 85.4283957 97.24440057 91.17693766 102.8125 96.8125 C105.04527762 99.07190737 107.28138417 101.32794419 109.51953125 103.58203125 C110.02579544 104.09659378 110.53205963 104.61115631 111.05366516 105.14131165 C113.28173749 107.38489561 115.35646384 109.23764256 118 111 C118 111.66 118 112.32 118 113 C118.66 113 119.32 113 120 113 C120 113.66 120 114.32 120 115 C120.53898926 115.21229248 121.07797852 115.42458496 121.63330078 115.64331055 C124.87507185 117.50162722 127.28010359 120.05415399 129.8671875 122.70703125 C130.42439484 123.26944016 130.98160217 123.83184906 131.55569458 124.41130066 C133.33362764 126.20700279 135.10473613 128.00923938 136.875 129.8125 C138.63893948 131.60420475 140.40436709 133.39437535 142.17288208 135.18156433 C143.2710153 136.29179266 144.36646728 137.404682 145.45870972 138.52070618 C147.99884893 141.09355483 150.56008185 143.49478202 153.38330078 145.7565918 C154.24681152 146.4969165 155.11032227 147.23724121 156 148 C156 148.66 156 149.32 156 150 C127.95 150.33 99.9 150.66 71 151 C71.020625 162.715 71.04125 174.43 71.0625 186.5 C71.08840785 216.34774083 70.86013869 246.16279544 70 276 C69.40799805 276.28085449 68.81599609 276.56170898 68.20605469 276.85107422 C65.38636903 278.19028908 62.56799743 279.53223627 59.75 280.875 C58.2036084 281.61133667 58.2036084 281.61133667 56.62597656 282.36254883 C48.75918781 286.12306661 40.95460889 289.99515042 33.20996094 294.00146484 C32.0464209 294.59435303 32.0464209 294.59435303 30.859375 295.19921875 C30.18358398 295.54815186 29.50779297 295.89708496 28.81152344 296.2565918 C27 297 27 297 24 297 C24 296.34 24 295.68 24 295 C29.5786311 292.19488991 35.17578242 289.43652029 40.8125 286.75 C41.93688477 286.20472656 41.93688477 286.20472656 43.08398438 285.6484375 C44.16583008 285.13410156 44.16583008 285.13410156 45.26953125 284.609375 C45.91510986 284.29967773 46.56068848 283.98998047 47.22583008 283.67089844 C49 283 49 283 52 283 C52 282.34 52 281.68 52 281 C53.74681293 280.01515892 55.4975851 279.03733813 57.25 278.0625 C58.71179688 277.24458984 58.71179688 277.24458984 60.203125 276.41015625 C63 275 63 275 67 274 C67 232.42 67 190.84 67 148 C70.09992575 146.45003713 73.35704381 146.92036747 76.75439453 146.97827148 C77.55447937 146.98787903 78.35456421 146.99748657 79.17889404 147.00738525 C81.83028806 147.04043447 84.48152034 147.08074417 87.1328125 147.12109375 C88.96840846 147.14538908 90.80401045 147.16923293 92.63961792 147.19264221 C97.47628635 147.25554154 102.31284838 147.32459159 107.14941406 147.39489746 C112.0826329 147.46552814 117.01592732 147.53037659 121.94921875 147.59570312 C131.63289555 147.72479083 141.31646984 147.86037266 151 148 C146.19096184 141.91023904 140.69265323 136.74259304 135 131.5 C131.73848765 128.49634226 128.49436712 125.49583191 125.36328125 122.35546875 C122.3164939 119.31875342 119.06387248 116.56020441 115.79296875 113.76953125 C115.20128906 113.18558594 114.60960937 112.60164063 114 112 C114 111.34 114 110.68 114 110 C113.443125 109.79375 112.88625 109.5875 112.3125 109.375 C109.74863045 107.85053702 108.3041072 106.0118914 106.46875 103.6953125 C104.27817781 101.1668329 101.74010942 99.10399983 99.1953125 96.94140625 C95.93298982 94.05639847 92.91847333 90.94059105 89.8828125 87.8203125 C88.12246661 85.93616102 88.12246661 85.93616102 86 85 C86 84.34 86 83.68 86 83 C85.46858398 82.79528076 84.93716797 82.59056152 84.38964844 82.37963867 C81.0019 80.42375735 78.47737369 77.70193361 75.765625 74.92578125 C75.16876892 74.3237236 74.57191284 73.72166595 73.95697021 73.10136414 C72.04982435 71.17644085 70.14947934 69.24498653 68.25 67.3125 C65.75861955 64.78436882 63.26371209 62.2597853 60.765625 59.73828125 C60.16947388 59.13509064 59.57332275 58.53190002 58.95910645 57.91043091 C55.27833925 54.2097868 51.51908859 50.68928483 47.44433594 47.41870117 C46 46 46 46 44.98535156 43.8840332 C44.09191641 41.64502846 44.09191641 41.64502846 41 41 C39.3125 39.5625 39.3125 39.5625 38 38 C38 37.34 38 36.68 38 36 C37.34 36 36.68 36 36 36 C36 35.34 36 34.68 36 34 C35.443125 33.773125 34.88625 33.54625 34.3125 33.3125 C31.98672954 31.99246812 30.3882093 30.47744503 28.55078125 28.5546875 C26.61098314 26.61000325 24.56300532 24.81325509 22.5 23 C15.80386179 17.07520325 15.80386179 17.07520325 13 14 C13 13.34 13 12.68 13 12 C12.360625 11.731875 11.72125 11.46375 11.0625 11.1875 C9 10 9 10 8 7 C6.18398635 5.79996657 6.18398635 5.79996657 4 5 C3.37480469 4.7421875 2.74960937 4.484375 2.10546875 4.21875 C-0.12261332 3.74375801 -0.12261332 3.74375801 -1.9296875 5.4765625 C-2.89261719 6.54003906 -2.89261719 6.54003906 -3.875 7.625 C-6.22050501 10.13151371 -8.48708805 12.50374617 -11.1875 14.625 C-14.2447392 17.20666866 -16.52438737 19.86907814 -19 23 C-19.66 22.67 -20.32 22.34 -21 22 C-18.91366488 17.82732976 -16.2942978 15.37183383 -12.76171875 12.46875 C-10.35135058 10.45921911 -8.18974498 8.24589229 -6 6 C-4.89714703 4.89452119 -3.79295733 3.79037449 -2.6875 2.6875 C-1.800625 1.800625 -0.91375 0.91375 0 0 Z " fill="#F87E27" transform="translate(697,380)"/>
<path d="M0 0 C13.2 0 26.4 0 40 0 C40.92994952 4.64974762 41.14002798 8.884089 41.12698364 13.58422852 C41.12854363 14.44756396 41.13010362 15.31089941 41.13171089 16.20039654 C41.13569911 19.09325048 41.13253946 21.98605192 41.12939453 24.87890625 C41.13074969 26.95391877 41.13253028 29.02893105 41.13470459 31.10394287 C41.13926974 36.74537875 41.13749191 42.38679637 41.1343255 48.02823257 C41.13179179 53.94680073 41.13414277 59.86536733 41.13571167 65.78393555 C41.13753268 75.7407255 41.13513122 85.69750805 41.13037109 95.65429688 C41.1249525 107.11982097 41.12667383 118.58532722 41.1321975 130.05085087 C41.13675923 139.91871574 41.13736357 149.78657529 41.13475883 159.65444088 C41.13320973 165.53648609 41.13296395 171.41852297 41.13629532 177.30056763 C41.13921779 182.8491523 41.1371193 188.39771442 41.13140106 193.94629669 C41.13009561 195.96607679 41.13042908 197.98585884 41.13266373 200.00563812 C41.14294844 210.25992358 41.02689672 220.49984934 40.61691284 230.74682617 C40.57137762 232.09746265 40.57137762 232.09746265 40.52492249 233.47538471 C40.46779503 234.71645119 40.46779503 234.71645119 40.40951347 235.98258972 C40.36361747 237.0770052 40.36361747 237.0770052 40.31679428 238.19353008 C40 240 40 240 38 242 C38 162.8 38 83.6 38 2 C25.13 2 12.26 2 -1 2 C-0.67 1.34 -0.34 0.68 0 0 Z " fill="#103560" transform="translate(293,424)"/>
<path d="M0 0 C0.33 0.66 0.66 1.32 1 2 C-17.75 11.375 -17.75 11.375 -21.12237263 13.06115532 C-23.62775593 14.31384192 -26.13309463 15.56661764 -28.63839245 16.81947517 C-37.4349724 21.21836177 -46.23285823 25.6146271 -55.03164673 30.00909424 C-71.32679313 38.14761852 -87.62063131 46.28875976 -103.91389942 54.43104362 C-113.30411645 59.12357538 -122.69471075 63.81534922 -132.08618164 68.50537109 C-140.33080665 72.62267083 -148.57470673 76.741418 -156.81777114 80.86184132 C-161.16093925 83.03277987 -165.50444306 85.20303998 -169.84882545 87.3715477 C-186.02829844 95.4480796 -202.19816128 103.51982601 -218.15783882 112.02515411 C-223.12282891 114.65255731 -228.14324198 117.17282546 -233.16015625 119.69921875 C-234.28272324 120.26453812 -235.40529022 120.82985748 -236.56187439 121.41230774 C-238.8874467 122.58190207 -241.21358144 123.75037876 -243.5402832 124.91772461 C-245.92071064 126.11379576 -248.29953449 127.3125346 -250.67602539 128.51635742 C-254.14541347 130.27378782 -257.6211935 132.01832106 -261.09765625 133.76171875 C-262.16516617 134.30422775 -263.23267609 134.84673676 -264.33253479 135.40568542 C-265.31213669 135.89402359 -266.29173859 136.38236176 -267.30102539 136.88549805 C-268.16305069 137.31944382 -269.02507599 137.75338959 -269.91322327 138.20048523 C-270.94617775 138.59624504 -270.94617775 138.59624504 -272 139 C-272.66 138.67 -273.32 138.34 -274 138 C-271.03 135.03 -268.06 132.06 -265 129 C-264.67 129.66 -264.34 130.32 -264 131 C-261.69 130.67 -259.38 130.34 -257 130 C-257 129.34 -257 128.68 -257 128 C-255.64843571 127.22461277 -254.29357915 126.45496383 -252.9375 125.6875 C-251.80634766 125.04361328 -251.80634766 125.04361328 -250.65234375 124.38671875 C-247.50433111 122.74085058 -244.26631736 121.39586212 -241 120 C-238.50130247 118.80909535 -236.03165376 117.56331928 -233.5625 116.3125 C-232.14068805 115.59622901 -230.71881129 114.88008663 -229.296875 114.1640625 C-228.22083008 113.62120605 -228.22083008 113.62120605 -227.12304688 113.06738281 C-225.1323104 112.06652036 -223.13764734 111.07418648 -221.140625 110.0859375 C-212.70087377 105.90390345 -204.35691709 101.56187176 -196.03125 97.15722656 C-189.07032064 93.50069732 -182.01308959 90.08930046 -174.86401367 86.81665039 C-174.12127197 86.4736792 -173.37853027 86.13070801 -172.61328125 85.77734375 C-171.96141846 85.48077881 -171.30955566 85.18421387 -170.63793945 84.87866211 C-168.80364645 83.99621125 -168.80364645 83.99621125 -167 82 C-165.68 82 -164.36 82 -163 82 C-163 81.34 -163 80.68 -163 80 C-162.47535156 79.81566406 -161.95070313 79.63132812 -161.41015625 79.44140625 C-154.68306055 76.9229428 -148.4500162 73.69139077 -142.15454102 70.26196289 C-137.84797809 67.92651337 -133.5074474 65.93034171 -129 64 C-125.99275762 62.48981278 -123.02883148 60.90123672 -120.0625 59.3125 C-107.81457317 52.81490721 -95.45087125 46.65009073 -82.88256836 40.79736328 C-78.53860347 38.76190545 -74.29357471 36.63168058 -70.15234375 34.203125 C-66.83008708 32.34603779 -63.41129306 30.68652537 -60 29 C-57.95079246 27.98448497 -55.90183743 26.96847237 -53.85351562 25.95117188 C-52.48188139 25.26994875 -51.10947181 24.59028476 -49.73632812 23.91210938 C-46.90570649 22.50360948 -44.14897603 21.09102823 -41.44921875 19.44140625 C-38.41032884 17.65296865 -35.24681193 16.37378363 -32 15 C-29.33417679 13.72680122 -26.69815304 12.39684701 -24.0625 11.0625 C-22.72005208 10.38671875 -21.37760417 9.7109375 -20.03515625 9.03515625 C-17.97901927 7.99932781 -15.92412645 6.96135795 -13.87255859 5.91650391 C-10.46361798 4.19018651 -7.10462881 2.53736743 -3.5 1.25 C-2.345 0.8375 -1.19 0.425 0 0 Z " fill="#FA7E28" transform="translate(719,677)"/>
<path d="M0 0 C0.66 0 1.32 0 2 0 C0.60249952 3.15835107 -1.05198234 5.32272825 -3.5 7.75 C-4.1084375 8.36359375 -4.716875 8.9771875 -5.34375 9.609375 C-7 11 -7 11 -9 11 C-9 11.66 -9 12.32 -9 13 C-80.28 13 -151.56 13 -225 13 C-221.64926258 9.64926258 -220.60930211 9.65237472 -216.07984149 9.62854183 C-215.26594711 9.63952848 -214.45205272 9.65051513 -213.61349487 9.66183472 C-212.74748504 9.66153798 -211.8814752 9.66124125 -210.98922265 9.66093552 C-208.07576935 9.66336528 -205.16286682 9.68709193 -202.24951172 9.71044922 C-200.16517978 9.71616462 -198.08084345 9.72043819 -195.99650574 9.72337341 C-191.50132675 9.73199205 -187.00629139 9.74927162 -182.51116562 9.77270126 C-175.40098054 9.80809633 -168.2909571 9.81450303 -161.18069458 9.81497192 C-140.95950597 9.81993722 -120.73857025 9.84906829 -100.51757812 9.94140625 C-89.35454812 9.99213812 -78.19194282 10.01078774 -67.0288049 9.9938184 C-61.12098518 9.98629228 -55.21424684 9.99571638 -49.30660629 10.04507065 C-43.74613535 10.09151717 -38.18718183 10.09631234 -32.62659645 10.06949043 C-30.58883367 10.0671419 -28.55098489 10.08014497 -26.51343727 10.10984993 C-15.66601871 10.59010912 -15.66601871 10.59010912 -5.8081398 6.92502213 C-3.62964284 4.72393362 -1.84726343 2.47333502 0 0 Z " fill="#21466F" transform="translate(513,701)"/>
<path d="M0 0 C19.86235842 -0.04671183 39.72470571 -0.08198484 59.58710766 -0.10362434 C68.80947391 -0.1139388 78.03180604 -0.1280024 87.25415039 -0.15087891 C95.29193895 -0.17080757 103.3297028 -0.1837152 111.36751539 -0.18817699 C115.62383254 -0.19078525 119.88007901 -0.19691937 124.13637352 -0.21146011 C128.14262226 -0.22503573 132.14877118 -0.22922268 136.15504074 -0.22621536 C137.62521088 -0.22676553 139.09538435 -0.23074313 140.56553459 -0.23841095 C142.57375039 -0.24837129 144.58201976 -0.24477509 146.59025574 -0.24050903 C148.27575421 -0.24327441 148.27575421 -0.24327441 149.99530315 -0.24609566 C153.046058 0.00377232 155.2431126 0.70655519 158 2 C155.33333333 3.33333333 152.66666667 4.66666667 150 6 C150 5.34 150 4.68 150 4 C113.37 3.67 76.74 3.34 39 3 C39 2.67 39 2.34 39 2 C19.695 1.505 19.695 1.505 0 1 C0 0.67 0 0.34 0 0 Z " fill="#1A416E" transform="translate(393,668)"/>
<path d="M0 0 C0.495 1.485 0.495 1.485 1 3 C-0.010625 3.825 -1.02125 4.65 -2.0625 5.5 C-5.39260744 8.35057197 -8.1923532 11.4363733 -11.03125 14.765625 C-14.79727273 19.0397619 -18.74807739 23.20669427 -23 27 C-23.66 27 -24.32 27 -25 27 C-25 27.66 -25 28.32 -25 29 C-26.485 29.495 -26.485 29.495 -28 30 C-28.495 31.485 -28.495 31.485 -29 33 C-30.9375 35.1875 -30.9375 35.1875 -33 37 C-33.66 37 -34.32 37 -35 37 C-35 37.66 -35 38.32 -35 39 C-35.66 39 -36.32 39 -37 39 C-37.33 39.99 -37.66 40.98 -38 42 C-39.53125 43.5078125 -39.53125 43.5078125 -41.5 45.125 C-46.26660864 49.16420876 -50.62274699 53.54713226 -55 58 C-56.66666667 59.66666667 -58.33333333 61.33333333 -60 63 C-60.886875 63.928125 -61.77375 64.85625 -62.6875 65.8125 C-65 68 -65 68 -67 68 C-67.25289795 68.57886963 -67.5057959 69.15773926 -67.76635742 69.75415039 C-69.14619931 72.26615624 -70.69756641 73.92478426 -72.73828125 75.93359375 C-73.47626953 76.66513672 -74.21425781 77.39667969 -74.97460938 78.15039062 C-75.74611328 78.90513672 -76.51761719 79.65988281 -77.3125 80.4375 C-78.07240234 81.18837891 -78.83230469 81.93925781 -79.61523438 82.71289062 C-81.08587183 84.16564023 -82.55963056 85.61523861 -84.03686523 87.0612793 C-85.67473205 88.67877717 -87.27398374 90.32338798 -88.8671875 91.984375 C-91.2664324 94.25179325 -92.75048163 94.72146985 -96 95 C-90.90764165 88.85375955 -85.38976208 83.2063253 -79.75 77.5625 C-78.83992188 76.64017578 -77.92984375 75.71785156 -76.9921875 74.76757812 C-76.12335938 73.89681641 -75.25453125 73.02605469 -74.359375 72.12890625 C-73.57014648 71.33556885 -72.78091797 70.54223145 -71.96777344 69.72485352 C-70 68 -70 68 -68 68 C-67.7525 67.38125 -67.505 66.7625 -67.25 66.125 C-65.79371361 63.64931313 -64.62187494 63.04874998 -62 62 C-62 61.34 -62 60.68 -62 60 C-60.35648543 58.63823078 -58.68477344 57.31037934 -57 56 C-55.31845446 54.34834624 -53.65388192 52.67935409 -52 51 C-51.09725342 50.0920166 -50.19450684 49.1840332 -49.2644043 48.24853516 C-48.79008469 47.77098785 -48.31576508 47.29344055 -47.82707214 46.80142212 C-45.68032851 44.64109936 -43.53074655 42.48360912 -41.38110352 40.32617188 C-40.25649806 39.1965408 -39.13279218 38.0660134 -38.01000977 36.93457031 C-32.47045311 31.35357059 -26.95122354 25.84446237 -20.96411133 20.73925781 C-16.79044572 17.0433978 -12.92079925 13.02244702 -9 9.0625 C-8.12988281 8.18787109 -7.25976562 7.31324219 -6.36328125 6.41210938 C-4.23986451 4.27702551 -2.11883622 2.13962795 0 0 Z " fill="#F7812C" transform="translate(557,705)"/>
<path d="M0 0 C13.53 0 27.06 0 41 0 C41 12.87 41 25.74 41 39 C40.67 39 40.34 39 40 39 C40 26.79 40 14.58 40 2 C27.46 2 14.92 2 2 2 C2 14.54 2 27.08 2 40 C14.87 40 27.74 40 41 40 C41 40.33 41 40.66 41 41 C32.45063856 41.87057937 24.02641897 42.09832764 15.4375 42 C13.14457799 41.97453723 10.8516014 41.95348843 8.55859375 41.9375 C7.06283813 41.92009766 7.06283813 41.92009766 5.53686523 41.90234375 C2.87475449 41.88646999 2.87475449 41.88646999 0 43 C-0.85491828 38.56155634 -1.12866713 34.36102269 -1.1328125 29.84375 C-1.13376923 29.17839233 -1.13472595 28.51303467 -1.13571167 27.82751465 C-1.13638827 26.42911687 -1.13457047 25.03071586 -1.13037109 23.63232422 C-1.1250154 21.50611234 -1.13033375 19.38011166 -1.13671875 17.25390625 C-1.13605788 15.88802037 -1.13477652 14.52213463 -1.1328125 13.15625 C-1.13168457 11.92712891 -1.13055664 10.69800781 -1.12939453 9.43164062 C-1 6 -1 6 0 0 Z " fill="#0A2C56" transform="translate(479,425)"/>
<path d="M0 0 C3.9057324 0.59316029 6.21803586 2.48621905 9.25 4.9375 C10.14203125 5.64777344 11.0340625 6.35804688 11.953125 7.08984375 C12.62859375 7.72019531 13.3040625 8.35054688 14 9 C14 9.66 14 10.32 14 11 C14.54527344 11.22558594 15.09054687 11.45117188 15.65234375 11.68359375 C18.69806986 13.39143019 21.05323972 15.67051771 23.5625 18.0625 C27.39465791 21.65112328 31.26920432 25.09644611 35.375 28.375 C40.47921985 32.47317072 45.24482105 36.86793506 49.96630859 41.39599609 C52.82391729 44.10693255 55.67069189 46.53390835 58.921875 48.765625 C59.93765625 49.50296875 60.9534375 50.2403125 62 51 C62 51.66 62 52.32 62 53 C62.56203125 53.24363281 63.1240625 53.48726563 63.703125 53.73828125 C66.44019785 55.24180936 68.45795941 57.06699748 70.75 59.1875 C71.63171875 59.99574219 72.5134375 60.80398438 73.421875 61.63671875 C74.69804688 62.80654297 74.69804688 62.80654297 76 64 C77.32899114 65.17161061 78.6619604 66.33873392 80 67.5 C82.97391711 70.08653312 85.89780743 72.72194125 88.8125 75.375 C92.35160002 78.57652433 95.97103106 81.63146063 99.6875 84.625 C104.07681425 88.17261336 108.13106034 91.89337804 112 96 C108.4575364 96 108.18039061 95.57153892 105.6875 93.25 C102.51843449 90.36585965 99.3121162 87.54575173 96.04541016 84.77368164 C90.87292221 80.38403012 85.78264706 75.93020065 80.8125 71.3125 C76.28801899 67.10970691 71.59186263 63.18310786 66.78125 59.3125 C63.22735668 56.35757747 59.85815456 53.22955431 56.47607422 50.08154297 C53.28675885 47.13068108 50.01635132 44.34007012 46.625 41.625 C41.58663806 37.57398276 36.8969524 33.22776443 32.1940918 28.79956055 C27.88748599 24.76642745 23.41468278 21.02100894 18.80859375 17.33203125 C12.27017462 11.9030518 5.94707043 6.07096773 0 0 Z " fill="#0F325C" transform="translate(518,252)"/>
<path d="M0 0 C0.79622772 0.00141495 1.59245544 0.0028299 2.41281128 0.00428772 C4.9601413 0.0098928 7.50738397 0.02244611 10.0546875 0.03515625 C11.77994665 0.0401706 13.50520717 0.04473362 15.23046875 0.04882812 C19.46357541 0.05986388 23.69661664 0.07713189 27.9296875 0.09765625 C28.4246875 1.08765625 28.4246875 1.08765625 28.9296875 2.09765625 C17.3796875 2.09765625 5.8296875 2.09765625 -6.0703125 2.09765625 C-6.0703125 14.96765625 -6.0703125 27.83765625 -6.0703125 41.09765625 C6.1396875 41.09765625 18.3496875 41.09765625 30.9296875 41.09765625 C30.9296875 28.55765625 30.9296875 16.01765625 30.9296875 3.09765625 C31.2596875 3.09765625 31.5896875 3.09765625 31.9296875 3.09765625 C31.9296875 16.29765625 31.9296875 29.49765625 31.9296875 43.09765625 C18.7296875 43.09765625 5.5296875 43.09765625 -8.0703125 43.09765625 C-8.0703125 29.56765625 -8.0703125 16.03765625 -8.0703125 2.09765625 C-8.7303125 1.76765625 -9.3903125 1.43765625 -10.0703125 1.09765625 C-6.89740537 -0.48879732 -3.48205866 -0.02312588 0 0 Z " fill="#0E3058" transform="translate(430.0703125,479.90234375)"/>
<path d="M0 0 C0.66 0 1.32 0 2 0 C2 0.66 2 1.32 2 2 C2.52464844 2.20496094 3.04929687 2.40992188 3.58984375 2.62109375 C7.05764779 4.60510481 9.69252923 7.30510776 12.5625 10.0625 C17.63813799 14.86370787 22.8317366 19.38546723 28.28515625 23.7578125 C33.37666216 27.96288357 38.15896846 32.51175619 43 37 C49.14366005 42.62284742 55.41060033 48.08290009 61.75073242 53.48144531 C65.46069095 56.65031569 69.09624592 59.88354624 72.6875 63.1875 C77.26842238 67.40085951 82.00719055 71.32015115 86.8828125 75.1875 C89 77 89 77 90 79 C85.8876517 78.46568096 83.87343863 76.30189725 80.9375 73.5 C77.29278974 70.07532926 73.60152807 66.80830049 69.6875 63.6875 C63.93877502 59.05063443 58.58759837 54.0398537 53.203125 48.9921875 C49.54768514 45.56653019 45.80063083 42.26336888 42 39 C39.58109487 36.91925322 37.16469885 34.83562664 34.75 32.75 C34.09942627 32.18829102 33.44885254 31.62658203 32.77856445 31.04785156 C28.70370581 27.51593633 24.70066613 23.91996778 20.75 20.25 C16.12380172 15.96138916 11.34184729 11.95805309 6.375 8.0703125 C3.8916651 5.90556333 1.94390682 3.65487274 0 1 C0 0.67 0 0.34 0 0 Z " fill="#0F325B" transform="translate(471,264)"/>
<path d="M0 0 C1.90240818 0.02438405 3.80482342 0.04822298 5.70724487 0.07154846 C10.64890759 0.13356732 15.59044094 0.20285422 20.53198242 0.27380371 C25.60069016 0.34524297 30.66948765 0.40960314 35.73828125 0.47460938 C45.63551535 0.60255755 55.53262703 0.73820591 65.4296875 0.87890625 C65.4296875 1.20890625 65.4296875 1.53890625 65.4296875 1.87890625 C35.72484005 2.82909732 6.04532947 3.00748263 -23.6730957 2.9475708 C-29.44091405 2.93710458 -35.20873728 2.93272479 -40.9765625 2.92773438 C-52.17449129 2.91719806 -63.37239947 2.90026929 -74.5703125 2.87890625 C-74.5703125 2.54890625 -74.5703125 2.21890625 -74.5703125 1.87890625 C-73.57402832 1.8538501 -72.57774414 1.82879395 -71.55126953 1.80297852 C-67.76018073 1.70690349 -63.96919308 1.60722048 -60.17822266 1.5065918 C-58.55520028 1.46398147 -56.93215382 1.42227653 -55.30908203 1.3815918 C-52.94035631 1.32204283 -50.57174428 1.2589413 -48.203125 1.1953125 C-47.50857208 1.17860001 -46.81401917 1.16188751 -46.09841919 1.14466858 C-41.56486439 1.0189745 -37.04797778 0.78390844 -32.52181625 0.49306297 C-21.66465792 -0.18434179 -10.87298544 -0.16517014 0 0 Z " fill="#082B59" transform="translate(406.5703125,668.12109375)"/>
<path d="M0 0 C13.2 0 26.4 0 40 0 C40 13.86 40 27.72 40 42 C39.67 42 39.34 42 39 42 C39 28.8 39 15.6 39 2 C26.79 2 14.58 2 2 2 C2 14.87 2 27.74 2 41 C2.66 41.33 3.32 41.66 4 42 C2.02 42.495 2.02 42.495 0 43 C0 28.81 0 14.62 0 0 Z " fill="#0E3058" transform="translate(422,424)"/>
<path d="M0 0 C0.99 0.33 1.98 0.66 3 1 C3 1.66 3 2.32 3 3 C3.59683594 3.26683594 4.19367188 3.53367188 4.80859375 3.80859375 C7.04574324 5.02486932 8.34420067 6.20357259 10.0625 8.0625 C12.94270032 11.03462161 15.95972061 13.65940473 19.1875 16.25 C23.8567409 20.0033267 28.2650697 23.94774636 32.63476562 28.03833008 C36.34537821 31.48259285 40.21927329 34.55087542 44.35546875 37.46484375 C46.27117738 39.25314183 46.62991924 40.44257624 47 43 C41.51441605 39.09679603 36.54825229 34.82100343 31.63134766 30.23657227 C28.39167691 27.23191663 25.07810007 24.38646295 21.625 21.625 C14.75839963 16.10558038 8.40062304 10.04555198 2 4 C-7.49949016 8.21954098 -15.42608697 17.05040084 -23 24 C-23 21 -23 21 -21.75 19.421875 C-20.88375 18.59429687 -20.88375 18.59429687 -20 17.75 C-19.03900391 16.82960937 -19.03900391 16.82960937 -18.05859375 15.890625 C-15.4284221 13.47505939 -12.7675898 11.10357882 -10.0546875 8.78125 C-8.61960886 7.53715141 -7.20977815 6.26359254 -5.8203125 4.96875 C-5.11648438 4.3190625 -4.41265625 3.669375 -3.6875 3 C-3.05199219 2.401875 -2.41648437 1.80375 -1.76171875 1.1875 C-1.18035156 0.795625 -0.59898437 0.40375 0 0 Z " fill="#0E315A" transform="translate(470,208)"/>
<path d="M0 0 C0 2 0 2 -1.3984375 3.41015625 C-2.05070312 3.95542969 -2.70296875 4.50070312 -3.375 5.0625 C-6.58342938 7.7907947 -9.74980367 10.55144446 -12.875 13.375 C-13.71546875 14.13296875 -14.5559375 14.8909375 -15.421875 15.671875 C-16.27265625 16.44015625 -17.1234375 17.2084375 -18 18 C-23.28259058 22.77033937 -28.57934135 27.51894407 -33.9453125 32.1953125 C-37.99969003 35.75638173 -41.9951293 39.3834804 -46 43 C-49.32834825 46.00559933 -52.66119418 49.00602167 -56 52 C-56.72445313 52.65355469 -57.44890625 53.30710937 -58.1953125 53.98046875 C-61.96395673 57.34072377 -65.71654896 60.3228431 -70 63 C-68.39517992 58.74417967 -65.17836845 56.14113833 -61.875 53.1875 C-61.28533447 52.6519751 -60.69566895 52.1164502 -60.08813477 51.56469727 C-56.46019442 48.27919387 -52.79219833 45.04124549 -49.08984375 41.83984375 C-46.35629441 39.43329844 -43.67885994 36.96696804 -41 34.5 C-37.09893469 30.90788216 -33.16344259 27.36676798 -29.1484375 23.90234375 C-27.37790032 22.33461355 -25.64174421 20.74318598 -23.9140625 19.12890625 C-23.37136719 18.62359375 -22.82867187 18.11828125 -22.26953125 17.59765625 C-21.18745625 16.58754824 -20.10920859 15.57332191 -19.03515625 14.5546875 C-15.22158395 11 -15.22158395 11 -13 11 C-13 10.34 -13 9.68 -13 9 C-11.26608049 7.39365985 -9.461909 5.8624713 -7.625 4.375 C-6.62726563 3.55773437 -5.62953125 2.74046875 -4.6015625 1.8984375 C-2 0 -2 0 0 0 Z " fill="#0F345F" transform="translate(317,346)"/>
<path d="M0 0 C0.33 0 0.66 0 1 0 C1.89663672 4.58556772 2.11633191 8.9170222 2.09765625 13.5859375 C2.09515869 14.87032715 2.09266113 16.1547168 2.09008789 17.47802734 C2.08098389 19.09402832 2.07187988 20.7100293 2.0625 22.375 C2.041875 27.53125 2.02125 32.6875 2 38 C21.305 38.495 21.305 38.495 41 39 C41 39.66 41 40.32 41 41 C27.47 41 13.94 41 0 41 C-0.86761984 36.66190079 -1.14571586 32.77524274 -1.1328125 28.3984375 C-1.13376923 27.68015778 -1.13472595 26.96187805 -1.13571167 26.22183228 C-1.13638946 24.71071281 -1.13456326 23.19959037 -1.13037109 21.68847656 C-1.12500136 19.37558482 -1.1303377 17.06288587 -1.13671875 14.75 C-1.1360582 13.27864541 -1.13477753 11.80729093 -1.1328125 10.3359375 C-1.13483673 9.64527191 -1.13686096 8.95460632 -1.13894653 8.24301147 C-1.12412824 5.21406623 -0.96618185 2.89854555 0 0 Z " fill="#14335B" transform="translate(479,482)"/>
<path d="M0 0 C0.99 0.33 1.98 0.66 3 1 C1.33333333 2.66666667 -0.33333333 4.33333333 -2 6 C-2.721875 6.763125 -3.44375 7.52625 -4.1875 8.3125 C-6 10 -6 10 -8 10 C-8.33 10.99 -8.66 11.98 -9 13 C-9.66 13 -10.32 13 -11 13 C-11.33 14.65 -11.66 16.3 -12 18 C14.73 18.33 41.46 18.66 69 19 C69 19.33 69 19.66 69 20 C39.63 20 10.26 20 -20 20 C-13.33333333 13.33333333 -6.66666667 6.66666667 0 0 Z " fill="#EF8139" transform="translate(564,510)"/>
<path d="M0 0 C0.99 0.33 1.98 0.66 3 1 C-6.68180982 12.86021703 -6.68180982 12.86021703 -13.18359375 16.08203125 C-15.16013242 16.85420154 -15.16013242 16.85420154 -15.9375 18.875 C-17.36626247 21.73252493 -19.49436704 23.07259003 -22 25 C-22.33 25.66 -22.66 26.32 -23 27 C-23.66 27 -24.32 27 -25 27 C-25 27.66 -25 28.32 -25 29 C-26.64351457 30.36176922 -28.31522656 31.68962066 -30 33 C-31.68080217 34.65241024 -33.34540141 36.32135201 -35 38 C-35.96402212 38.96566468 -36.92888138 39.93049429 -37.89453125 40.89453125 C-38.37470703 41.37470703 -38.85488281 41.85488281 -39.34960938 42.34960938 C-41.56640625 44.56640625 -43.78320312 46.78320312 -46 49 C-46.495 47.515 -46.495 47.515 -47 46 C-45.37660195 44.29115995 -43.70680947 42.62553283 -42 41 C-41.34 41 -40.68 41 -40 41 C-39.67 40.01 -39.34 39.02 -39 38 C-37.41821289 36.43821716 -37.41821289 36.43821716 -35.41015625 34.77905273 C-31.21309871 31.21593062 -27.3131044 27.44217271 -23.4375 23.53515625 C-22.76074219 22.85698349 -22.08398438 22.17881073 -21.38671875 21.48008728 C-19.25542325 19.34325695 -17.12765782 17.20295177 -15 15.0625 C-13.54320221 13.60067877 -12.08617299 12.13908813 -10.62890625 10.67773438 C-7.08326027 7.121146 -3.54077261 3.56143984 0 0 Z " fill="#F98028" transform="translate(615,460)"/>
<path d="M0 0 C4.18089192 -0.04961351 8.36162566 -0.08582016 12.54272461 -0.10986328 C13.96365343 -0.11989146 15.38456178 -0.13351741 16.80541992 -0.15087891 C18.85340444 -0.17526821 20.90111498 -0.1865149 22.94921875 -0.1953125 C24.17987061 -0.20578613 25.41052246 -0.21625977 26.6784668 -0.22705078 C29.90285303 -0.0066407 32.10634881 0.61200798 35 2 C32.33333333 3.33333333 29.66666667 4.66666667 27 6 C27 5.34 27 4.68 27 4 C15.615 3.505 15.615 3.505 4 3 C4 2.34 4 1.68 4 1 C2.68 0.67 1.36 0.34 0 0 Z " fill="#203E65" transform="translate(516,668)"/>
<path d="M0 0 C0.495 1.485 0.495 1.485 1 3 C-2.33333333 6.33333333 -5.66666667 9.66666667 -9 13 C-9.721875 13.763125 -10.44375 14.52625 -11.1875 15.3125 C-13 17 -13 17 -15 17 C-15 17.66 -15 18.32 -15 19 C-15.66 19 -16.32 19 -17 19 C-17.20625 19.53109375 -17.4125 20.0621875 -17.625 20.609375 C-19.57961192 24.00773436 -22.22123717 26.51055928 -25 29.25 C-25.5465625 29.80429687 -26.093125 30.35859375 -26.65625 30.9296875 C-30.7466133 35 -30.7466133 35 -33 35 C-31.67005617 32.04734888 -30.22220684 29.97649784 -27.92724609 27.70019531 C-27.30675385 27.07985413 -26.6862616 26.45951294 -26.04696655 25.82037354 C-25.37920197 25.16293152 -24.71143738 24.5054895 -24.0234375 23.828125 C-23.33819 23.1457074 -22.6529425 22.46328979 -21.94692993 21.76019287 C-19.76094155 19.58538402 -17.56809571 17.41763928 -15.375 15.25 C-13.89016745 13.7752001 -12.40578694 12.29994494 -10.921875 10.82421875 C-7.2864709 7.21084552 -3.64490176 3.60379147 0 0 Z " fill="#FA8129" transform="translate(671,405)"/>
<path d="M0 0 C2.86724963 1.31467778 5.04544591 2.75626529 7.375 4.875 C10.01811148 7.24537014 12.67837463 9.58750398 15.38671875 11.8828125 C20.9013705 16.55713637 26.33302114 21.18173945 31.33984375 26.40625 C34.08080832 29.03757599 37.12989647 31.26061823 40.1796875 33.51953125 C42 35 42 35 43 37 C38.68951916 36.52789972 36.22882699 33.74377995 33.25 30.875 C32.16855182 29.85875416 31.08652137 28.84312759 30.00390625 27.828125 C29.48328613 27.33634766 28.96266602 26.84457031 28.42626953 26.33789062 C25.36525368 23.46655086 22.17398593 20.74478249 19 18 C17.77190292 16.92995428 16.5440641 15.85961212 15.31640625 14.7890625 C13.96103185 13.6092666 12.60556209 12.42958024 11.25 11.25 C10.59926514 10.6823291 9.94853027 10.1146582 9.27807617 9.52978516 C6.749714 7.33402476 4.26662231 5.19190013 1.546875 3.234375 C1.03640625 2.82703125 0.5259375 2.4196875 0 2 C0 1.34 0 0.68 0 0 Z " fill="#11325B" transform="translate(561,344)"/>
<path d="M0 0 C0.99 0.33 1.98 0.66 3 1 C1.9171875 2.051875 1.9171875 2.051875 0.8125 3.125 C-1.10968351 5.03093971 -2.82596463 6.9992408 -4.5 9.125 C-7 12 -7 12 -9.375 13.375 C-12.79409097 15.49158013 -14.9287002 18.25372198 -17.44921875 21.35546875 C-17.96097656 21.89816406 -18.47273437 22.44085937 -19 23 C-19.66 23 -20.32 23 -21 23 C-21 23.66 -21 24.32 -21 25 C-22.65002828 26.35386936 -24.3174387 27.68678142 -26 29 C-26.33 29.66 -26.66 30.32 -27 31 C-27.66 30.67 -28.32 30.34 -29 30 C-23.22953099 23.1228486 -16.93066326 16.81359371 -10.5625 10.5 C-9.5342702 9.47679861 -8.50627374 8.45336267 -7.47851562 7.4296875 C-4.98835662 4.95042001 -2.49507167 2.47432462 0 0 Z " fill="#F9812A" transform="translate(589,674)"/>
<path d="M0 0 C0.99 0.33 1.98 0.66 3 1 C-2.58600497 6.10339057 -8.17924963 11.19025534 -13.8984375 16.14453125 C-17.42069497 19.25433106 -20.8503735 22.46625685 -24.2890625 25.66796875 C-27.08436814 28.07257605 -29.89652136 30.02050849 -33 32 C-33 31.01 -33 30.02 -33 29 C-30.83984375 26.984375 -30.83984375 26.984375 -27.9375 24.75 C-23.92174946 21.57642733 -20.22997283 18.35654113 -16.67578125 14.68359375 C-14.22851437 12.22491771 -11.62225595 9.97034441 -8.98828125 7.71484375 C-7.65307885 6.56326447 -6.33788574 5.38810599 -5.04296875 4.19140625 C-4.43066406 3.63324219 -3.81835938 3.07507813 -3.1875 2.5 C-2.64480469 1.9946875 -2.10210937 1.489375 -1.54296875 0.96875 C-0.77919922 0.48921875 -0.77919922 0.48921875 0 0 Z " fill="#0E325C" transform="translate(352,313)"/>
<path d="M0 0 C1.32 0.66 2.64 1.32 4 2 C3.67 15.2 3.34 28.4 3 42 C2.67 42 2.34 42 2 42 C2 29.13 2 16.26 2 3 C-10.54 3 -23.08 3 -36 3 C-36 2.67 -36 2.34 -36 2 C-34.41747437 1.96241577 -34.41747437 1.96241577 -32.80297852 1.92407227 C-28.90229372 1.83015891 -25.00179375 1.72989966 -21.10131836 1.62768555 C-19.41060701 1.58427561 -17.71985009 1.54260511 -16.02905273 1.50268555 C-13.60386394 1.44512906 -11.17890585 1.38139351 -8.75390625 1.31640625 C-7.99348526 1.29969376 -7.23306427 1.28298126 -6.44960022 1.26576233 C-2.92917969 1.47908732 -2.92917969 1.47908732 0 0 Z " fill="#163F6A" transform="translate(460,480)"/>
<path d="M0 0 C0.33 0 0.66 0 1 0 C1 1.98 1 3.96 1 6 C13.87 6 26.74 6 40 6 C40 6.33 40 6.66 40 7 C31.45063856 7.87057937 23.02641897 8.09832764 14.4375 8 C12.14457799 7.97453723 9.8516014 7.95348843 7.55859375 7.9375 C6.06283813 7.92009766 6.06283813 7.92009766 4.53686523 7.90234375 C1.87475449 7.88646999 1.87475449 7.88646999 -1 9 C-1.625 6.1875 -1.625 6.1875 -2 3 C-1.34 2.01 -0.68 1.02 0 0 Z " fill="#15335B" transform="translate(480,459)"/>
<path d="M0 0 C0.99 0.33 1.98 0.66 3 1 C-2.27600685 5.76786685 -7.56507709 10.51612757 -12.93359375 15.1796875 C-15.33814444 17.29787393 -17.69722704 19.4630763 -20.0625 21.625 C-23.87448753 25.07169661 -27.74063077 28.12955552 -32 31 C-32 28 -32 28 -30.7421875 26.59765625 C-30.12601562 26.09105469 -29.50984375 25.58445312 -28.875 25.0625 C-28.14796875 24.45277344 -27.4209375 23.84304688 -26.671875 23.21484375 C-25.79015625 22.48394531 -24.9084375 21.75304687 -24 21 C-21.70176715 19.049322 -19.41346804 17.08711743 -17.125 15.125 C-16.52526367 14.61235596 -15.92552734 14.09971191 -15.30761719 13.5715332 C-10.12575298 9.13363465 -5.0400101 4.5987189 0 0 Z " fill="#0E325D" transform="translate(415,257)"/>
<path d="M0 0 C0.33 0 0.66 0 1 0 C1.375 2.6875 1.375 2.6875 1 6 C-1.75 8.5625 -1.75 8.5625 -3.41796875 9.78515625 C-5.69388049 11.53283169 -7.24859934 13.74012819 -9 16 C-12.97186193 20.20550087 -17.31122176 23.99691209 -21.62890625 27.83984375 C-23.48228895 29.52834562 -25.22529225 31.23579811 -26.9375 33.0625 C-29 35 -29 35 -32 35 C-28.8490657 31.83925083 -25.68058449 28.69786409 -22.49505615 25.57200623 C-20.18097666 23.29827353 -17.87504028 21.01635234 -15.56933594 18.73413086 C-14.35192157 17.53190967 -13.13184412 16.3323795 -11.90917969 15.13549805 C-10.1354835 13.3981403 -8.37161233 11.65131378 -6.609375 9.90234375 C-6.0615033 9.3699559 -5.51363159 8.83756805 -4.94915771 8.28904724 C-1.35101378 4.73022696 -1.35101378 4.73022696 0 0 Z " fill="#FC7F26" transform="translate(633,628)"/>
<path d="M0 0 C2.8041469 1.29675068 5.02800486 2.71453412 7.34765625 4.75 C7.95287109 5.2759375 8.55808594 5.801875 9.18164062 6.34375 C10.11266602 7.16359375 10.11266602 7.16359375 11.0625 8 C12.30209704 9.08480732 13.54293749 10.16819583 14.78515625 11.25 C15.33051025 11.72953125 15.87586426 12.2090625 16.43774414 12.703125 C18.18080524 14.19611743 18.18080524 14.19611743 21 16 C21.55429687 15.4225 22.10859375 14.845 22.6796875 14.25 C23.40414062 13.5075 24.12859375 12.765 24.875 12 C25.59429688 11.2575 26.31359375 10.515 27.0546875 9.75 C29 8 29 8 31 8 C29.55218207 11.44428265 27.72305391 13.36130962 24.875 15.75 C23.78832031 16.67039062 23.78832031 16.67039062 22.6796875 17.609375 C22.12539063 18.06828125 21.57109375 18.5271875 21 19 C15.65941164 15.23017292 10.80070711 11.11125687 6 6.6875 C5.4119458 6.14770508 4.8238916 5.60791016 4.21801758 5.05175781 C2.79055708 3.723868 1.39230105 2.36470972 0 1 C0 0.67 0 0.34 0 0 Z " fill="#16345C" transform="translate(604,382)"/>
<path d="M0 0 C0.66 0 1.32 0 2 0 C2.77806859 11.79073171 3.1596298 23.22529744 2 35 C1.67 35 1.34 35 1 35 C0.00859351 23.31556633 -0.10709533 11.72098848 0 0 Z " fill="#0B2C55" transform="translate(331,488)"/>
<path d="M0 0 C0.99 0.33 1.98 0.66 3 1 C-0.32725625 4.00680329 -3.66262621 7.00443405 -7 10 C-7.77214844 10.69996094 -8.54429687 11.39992188 -9.33984375 12.12109375 C-10.03207031 12.74113281 -10.72429687 13.36117188 -11.4375 14 C-12.05496094 14.556875 -12.67242187 15.11375 -13.30859375 15.6875 C-15 17 -15 17 -18 18 C-18 18.66 -18 19.32 -18 20 C-17.01 20.33 -16.02 20.66 -15 21 C-17.64 21 -20.28 21 -23 21 C-19.25764638 17.20877236 -15.41573759 13.54888212 -11.5 9.9375 C-10.94441406 9.42123047 -10.38882813 8.90496094 -9.81640625 8.37304688 C-2.92416713 2.00786133 -2.92416713 2.00786133 0 0 Z " fill="#0F335D" transform="translate(197,451)"/>
<path d="M0 0 C3.73922129 1.5813062 6.29649737 3.93230398 9.25 6.6875 C13.24931731 10.40268351 17.30225097 13.98835895 21.5390625 17.4296875 C23.23096859 19.24826035 23.61161763 20.5752344 24 23 C23.01 23 22.02 23 21 23 C21 21.68 21 20.36 21 19 C20.46246094 18.78085937 19.92492187 18.56171875 19.37109375 18.3359375 C16.18701332 16.54194161 13.69608092 14.1237784 11.0625 11.625 C10.03400426 10.65730841 9.00407291 9.69114021 7.97265625 8.7265625 C7.47781738 8.26282227 6.98297852 7.79908203 6.47314453 7.32128906 C5.07982593 6.07159727 3.60161465 4.9184808 2.12109375 3.7734375 C1.42113281 3.18820312 0.72117187 2.60296875 0 2 C0 1.34 0 0.68 0 0 Z " fill="#11315B" transform="translate(631,350)"/>
<path d="M0 0 C0.99 0.33 1.98 0.66 3 1 C1.33333333 2.66666667 -0.33333333 4.33333333 -2 6 C-2.721875 6.763125 -3.44375 7.52625 -4.1875 8.3125 C-6 10 -6 10 -8 10 C-8.33 10.99 -8.66 11.98 -9 13 C-9.66 13 -10.32 13 -11 13 C-11.33 14.65 -11.66 16.3 -12 18 C-14.31 18.33 -16.62 18.66 -19 19 C-12.66666667 12.66666667 -6.33333333 6.33333333 0 0 Z " fill="#F57F2B" transform="translate(564,510)"/>
<path d="M0 0 C0.66 0.33 1.32 0.66 2 1 C-4.2684287 7.54702553 -10.89961083 13.37347949 -18 19 C-19.66689126 20.33305254 -21.33362577 21.6663012 -23 23 C-22.67031126 20.05917645 -22.06686874 19.06341427 -19.8828125 16.9921875 C-18.97273437 16.29351562 -18.06265625 15.59484375 -17.125 14.875 C-12.87711765 11.52902714 -8.79400683 8.09628832 -4.8125 4.4375 C-3.89082031 3.59058594 -2.96914062 2.74367188 -2.01953125 1.87109375 C-1.35308594 1.25363281 -0.68664062 0.63617188 0 0 Z " fill="#0D325C" transform="translate(232,420)"/>
<path d="M0 0 C0.66 0.33 1.32 0.66 2 1 C-5.51603427 8.69593934 -13.29161645 15.67715769 -22 22 C-22 19 -22 19 -20.6015625 17.4921875 C-19.62316406 16.69167969 -19.62316406 16.69167969 -18.625 15.875 C-15.26618148 13.06602366 -11.98718393 10.19900732 -8.75 7.25 C-5.92440304 4.6763671 -3.09546028 2.24349874 0 0 Z " fill="#0E315A" transform="translate(441,234)"/>
<path d="M0 0 C-1.51852477 3.83945182 -3.77802738 5.67491055 -7 8.1875 C-12.53268573 12.58733726 -17.79276595 17.22199566 -23 22 C-23.66 21.67 -24.32 21.34 -25 21 C-20.23124137 15.93828009 -15.09347549 11.53264387 -9.6484375 7.2109375 C-6.90572216 4.99695729 -6.90572216 4.99695729 -4.2890625 2.2265625 C-2 0 -2 0 0 0 Z " fill="#0E315B" transform="translate(376,349)"/>
<path d="M0 0 C-1.42095543 3.3326532 -3.1165874 5.23606522 -5.875 7.5625 C-6.55304688 8.14128906 -7.23109375 8.72007812 -7.9296875 9.31640625 C-9.91651825 10.93211201 -11.93937141 12.4799399 -14 14 C-14.66 13.67 -15.32 13.34 -16 13 C-3.34615385 0 -3.34615385 0 0 0 Z " fill="#0F325C" transform="translate(314,404)"/>
<path d="M0 0 C0 2 0 2 -1.46875 3.515625 C-6.1793294 7.5377351 -10.98723457 11.36041233 -16 15 C-13.67952816 9.78751153 -6.04911629 0 0 0 Z " fill="#0D305A" transform="translate(372,297)"/>
<path d="M0 0 C0.66 0.33 1.32 0.66 2 1 C4.17674783 1.15469367 6.3578348 1.25002106 8.5390625 1.31640625 C9.84101563 1.35830078 11.14296875 1.40019531 12.484375 1.44335938 C13.86458045 1.48317299 15.24478883 1.52288522 16.625 1.5625 C18.01303415 1.60569407 19.40105528 1.64930865 20.7890625 1.69335938 C24.19260256 1.79972 27.59621778 1.90174714 31 2 C31 2.33 31 2.66 31 3 C20.77 3 10.54 3 0 3 C0 2.01 0 1.02 0 0 Z " fill="#0E3B68" transform="translate(290,424)"/>
<path d="M0 0 C-1.3881735 3.12857014 -3.01101878 5.28189174 -5.4375 7.6875 C-6.03433594 8.28949219 -6.63117188 8.89148438 -7.24609375 9.51171875 C-9 11 -9 11 -12 12 C-10.53033642 8.60140297 -8.61962486 6.35036291 -6 3.75 C-5.29875 3.04359375 -4.5975 2.3371875 -3.875 1.609375 C-2 0 -2 0 0 0 Z " fill="#1E3960" transform="translate(515,701)"/>
<path d="M0 0 C0.33 0 0.66 0 1 0 C1.33 6.6 1.66 13.2 2 20 C1.34 20.33 0.68 20.66 0 21 C-0.82514784 18.16615892 -1.07936233 15.83064749 -0.87890625 12.890625 C-0.83056641 12.13652344 -0.78222656 11.38242187 -0.73242188 10.60546875 C-0.67634766 9.82816406 -0.62027344 9.05085937 -0.5625 8.25 C-0.51029297 7.45722656 -0.45808594 6.66445313 -0.40429688 5.84765625 C-0.27510676 3.89806003 -0.13830035 1.94897114 0 0 Z " fill="#08264E" transform="translate(332,535)"/>
<path d="M0 0 C-1.44781793 3.44428265 -3.27694609 5.36130962 -6.125 7.75 C-7.21167969 8.67039062 -7.21167969 8.67039062 -8.3203125 9.609375 C-8.87460937 10.06828125 -9.42890625 10.5271875 -10 11 C-10 8 -10 8 -8.3203125 5.95703125 C-7.23363281 4.89548828 -7.23363281 4.89548828 -6.125 3.8125 C-5.40570312 3.09707031 -4.68640625 2.38164062 -3.9453125 1.64453125 C-2 0 -2 0 0 0 Z " fill="#263F63" transform="translate(635,390)"/>
<path d="M0 0 C0 2 0 2 -1.609375 3.62109375 C-2.66898437 4.52021484 -2.66898437 4.52021484 -3.75 5.4375 C-4.44609375 6.03433594 -5.1421875 6.63117188 -5.859375 7.24609375 C-7.86673589 8.89081098 -9.91070312 10.46126108 -12 12 C-12.66 11.67 -13.32 11.34 -14 11 C-12.04709472 9.16056628 -10.08818082 7.32840869 -8.125 5.5 C-7.29162109 4.71302734 -7.29162109 4.71302734 -6.44140625 3.91015625 C-2.2265625 0 -2.2265625 0 0 0 Z " fill="#0E315A" transform="translate(411,318)"/>
<path d="M0 0 C-1.65091778 4.29238623 -4.73754566 6.8793915 -8 10 C-8.99 9.67 -9.98 9.34 -11 9 C-9.54782324 7.49403892 -8.08807139 5.99537896 -6.625 4.5 C-5.40683594 3.24703125 -5.40683594 3.24703125 -4.1640625 1.96875 C-2 0 -2 0 0 0 Z " fill="#1A3861" transform="translate(539,678)"/>
<path d="M0 0 C0 3 0 3 -2.1875 5.26171875 C-3.115625 6.06222656 -4.04375 6.86273438 -5 7.6875 C-5.928125 8.49574219 -6.85625 9.30398438 -7.8125 10.13671875 C-8.8953125 11.05904297 -8.8953125 11.05904297 -10 12 C-10.66 11.67 -11.32 11.34 -12 11 C-8.17426612 7.07503959 -4.38002676 3.31820209 0 0 Z " fill="#0E3059" transform="translate(426,303)"/>
<path d="M0 0 C1.15518918 0.90484792 2.29885406 1.8244206 3.4375 2.75 C4.07558594 3.26046875 4.71367188 3.7709375 5.37109375 4.296875 C7.18810554 6.19667629 7.60423197 7.43586908 8 10 C7.01 10 6.02 10 5 10 C5 8.68 5 7.36 5 6 C4.360625 5.7525 3.72125 5.505 3.0625 5.25 C1 4 1 4 0.37109375 1.921875 C0.24863281 1.28765625 0.12617187 0.6534375 0 0 Z " fill="#1C3A62" transform="translate(647,363)"/>
<path d="M0 0 C0 0.99 0 1.98 0 3 C-0.66 3.66 -1.32 4.32 -2 5 C-1.67 5.66 -1.34 6.32 -1 7 C-2.96466413 8.06775224 -4.96855359 9.06553465 -7 10 C-7.66 9.67 -8.32 9.34 -9 9 C-6.03 6.03 -3.06 3.06 0 0 Z " fill="#DB732B" transform="translate(454,806)"/>
<path d="M0 0 C0.33 0 0.66 0 1 0 C1 1.98 1 3.96 1 6 C1.66 6.33 2.32 6.66 3 7 C1.02 7.99 1.02 7.99 -1 9 C-1.625 6.1875 -1.625 6.1875 -2 3 C-1.34 2.01 -0.68 1.02 0 0 Z " fill="#143964" transform="translate(480,459)"/>
<path d="M0 0 C0 4.38968456 -2.12805101 5.76905739 -5 9 C-5.99 8.67 -6.98 8.34 -8 8 C-5.36 5.36 -2.72 2.72 0 0 Z " fill="#F5812F" transform="translate(600,663)"/>
<path d="M0 0 C-1.49097658 3.7952131 -3.75700849 5.61042731 -7 8 C-7.66 7.67 -8.32 7.34 -9 7 C-7.88121617 5.82737096 -6.75476949 4.66204862 -5.625 3.5 C-4.68527344 2.52546875 -4.68527344 2.52546875 -3.7265625 1.53125 C-2 0 -2 0 0 0 Z " fill="#0D2F58" transform="translate(395,332)"/>
<path d="M0 0 C0.33 0 0.66 0 1 0 C1.33 3.3 1.66 6.6 2 10 C1.01 9.67 0.02 9.34 -1 9 C-1.09765625 2.84765625 -1.09765625 2.84765625 -1 1 C-0.67 0.67 -0.34 0.34 0 0 Z " fill="#19385D" transform="translate(479,513)"/>
<path d="M0 0 C0.33 0 0.66 0 1 0 C1.22174933 1.45635371 1.42698698 2.91522956 1.625 4.375 C1.74101563 5.18710937 1.85703125 5.99921875 1.9765625 6.8359375 C1.98429688 7.55007813 1.99203125 8.26421875 2 9 C1.34 9.66 0.68 10.32 0 11 C-1.125 3.375 -1.125 3.375 0 0 Z " fill="#FB7B23" transform="translate(633,616)"/>
<path d="M0 0 C0.66 0.33 1.32 0.66 2 1 C1.0479279 2.00596297 0.08812654 3.00461563 -0.875 4 C-1.40867188 4.556875 -1.94234375 5.11375 -2.4921875 5.6875 C-4 7 -4 7 -6 7 C-4.60667426 3.63279613 -3.0210714 2.0140476 0 0 Z " fill="#0E325A" transform="translate(206,443)"/>
<path d="" fill="#214B77" transform="translate(0,0)"/>
<path d="M0 0 C2 1 2 1 2 1 Z " fill="#375072" transform="translate(430,715)"/>
<path d="M0 0 C2 1 2 1 2 1 Z " fill="#365173" transform="translate(422,715)"/>
<path d="" fill="#1E4A78" transform="translate(0,0)"/>
<path d="M0 0 C2 1 2 1 2 1 Z " fill="#555D6E" transform="translate(620,399)"/>
<path d="M0 0 C2 1 2 1 2 1 Z " fill="#305176" transform="translate(601,383)"/>
<path d="" fill="#171514" transform="translate(0,0)"/>
<path d="" fill="#EC7E37" transform="translate(0,0)"/>
<path d="" fill="#F08136" transform="translate(0,0)"/>
<path d="" fill="#535A6E" transform="translate(0,0)"/>
<path d="" fill="#2E4C73" transform="translate(0,0)"/>
<path d="" fill="#EE8135" transform="translate(0,0)"/>
<path d="" fill="#645E6B" transform="translate(0,0)"/>
<path d="" fill="#F08136" transform="translate(0,0)"/>
<path d="" fill="#EF8136" transform="translate(0,0)"/>
<path d="" fill="#F38235" transform="translate(0,0)"/>
<path d="" fill="#7B6563" transform="translate(0,0)"/>
<path d="" fill="#826864" transform="translate(0,0)"/>
<path d="" fill="#E78343" transform="translate(0,0)"/>
<path d="" fill="#E98341" transform="translate(0,0)"/>
<path d="" fill="#EC8542" transform="translate(0,0)"/>
<path d="" fill="#EF8841" transform="translate(0,0)"/>
<path d="" fill="#CA7032" transform="translate(0,0)"/>
<path d="" fill="#CF7233" transform="translate(0,0)"/>
<path d="" fill="#355275" transform="translate(0,0)"/>
<path d="" fill="#224972" transform="translate(0,0)"/>
<path d="" fill="#D87C3F" transform="translate(0,0)"/>
<path d="" fill="#E28342" transform="translate(0,0)"/>
<path d="" fill="#244C79" transform="translate(0,0)"/>
<path d="" fill="#E48240" transform="translate(0,0)"/>
<path d="" fill="#ED8135" transform="translate(0,0)"/>
<path d="" fill="#E38545" transform="translate(0,0)"/>
<path d="" fill="#204C7B" transform="translate(0,0)"/>
<path d="" fill="#E98441" transform="translate(0,0)"/>
<path d="" fill="#204A79" transform="translate(0,0)"/>
<path d="" fill="#1B4770" transform="translate(0,0)"/>
<path d="" fill="#E88443" transform="translate(0,0)"/>
<path d="" fill="#1A4674" transform="translate(0,0)"/>
<path d="" fill="#1B4774" transform="translate(0,0)"/>
<path d="" fill="#1C4D7E" transform="translate(0,0)"/>
<path d="" fill="#1D4C77" transform="translate(0,0)"/>
<path d="" fill="#1B4773" transform="translate(0,0)"/>
<path d="" fill="#585C6B" transform="translate(0,0)"/>
<path d="" fill="#DE7B3A" transform="translate(0,0)"/>
<path d="" fill="#565A6B" transform="translate(0,0)"/>
<path d="" fill="#1C4674" transform="translate(0,0)"/>
<path d="" fill="#204F7D" transform="translate(0,0)"/>
<path d="" fill="#565767" transform="translate(0,0)"/>
<path d="" fill="#1F4C76" transform="translate(0,0)"/>
<path d="" fill="#1B4573" transform="translate(0,0)"/>
<path d="" fill="#2B4D77" transform="translate(0,0)"/>
<path d="" fill="#1F507C" transform="translate(0,0)"/>
<path d="" fill="#1C4874" transform="translate(0,0)"/>
<path d="" fill="#254D77" transform="translate(0,0)"/>
<path d="" fill="#194976" transform="translate(0,0)"/>
<path d="" fill="#244B74" transform="translate(0,0)"/>
<path d="" fill="#234B76" transform="translate(0,0)"/>
<path d="" fill="#234B78" transform="translate(0,0)"/>
<path d="" fill="#204A76" transform="translate(0,0)"/>
<path d="" fill="#1F4F7C" transform="translate(0,0)"/>
<path d="" fill="#1C4571" transform="translate(0,0)"/>
<path d="" fill="#1A4773" transform="translate(0,0)"/>
<path d="" fill="#1F4B76" transform="translate(0,0)"/>
<path d="" fill="#1D4B79" transform="translate(0,0)"/>
<path d="" fill="#1D497A" transform="translate(0,0)"/>
<path d="" fill="#1E4A79" transform="translate(0,0)"/>
<path d="" fill="#1D4872" transform="translate(0,0)"/>
<path d="" fill="#1D4B7A" transform="translate(0,0)"/>
<path d="" fill="#1D4D79" transform="translate(0,0)"/>
<path d="" fill="#1A4373" transform="translate(0,0)"/>
<path d="" fill="#1F4B76" transform="translate(0,0)"/>
<path d="" fill="#19426D" transform="translate(0,0)"/>
</svg>
